<svg width="232" height="64" viewBox="0 0 232 64" fill="none" xmlns="http://www.w3.org/2000/svg">
<path d="M33.8286 1.53145C35.0075 -0.510486 37.9548 -0.510484 39.1337 1.53146L72.5474 59.4056C73.7263 61.4476 72.2526 64 69.8948 64H3.06748C0.709649 64 -0.763993 61.4476 0.414922 59.4056L33.8286 1.53145Z" fill="white"/>
<path d="M36.1117 5.96608C36.2759 5.68164 36.6864 5.68163 36.8507 5.96608L67.5654 59.1655C67.7296 59.45 67.5243 59.8055 67.1959 59.8055H5.76645C5.43801 59.8055 5.23272 59.45 5.39695 59.1655L36.1117 5.96608Z" stroke="black" stroke-width="3"/>
<path d="M33.6925 25.975C30.5593 26.8612 28.1989 29.2176 27.3425 32.2726C27.0918 33.1693 27.0187 34.8793 27.1754 35.9428L27.2485 36.4745L26.8621 36.5996C26.2772 36.7873 24.9717 37.5068 24.4286 37.9343C21.9221 39.9257 20.6897 43.2205 21.2432 46.4423C21.3372 47.0054 21.4834 47.6414 21.567 47.8499L21.7132 48.2253L21.6296 47.704C21.2119 44.8367 22.3711 42.1674 24.6688 40.7182C26.0161 39.8736 27.7498 39.4878 29.1911 39.7172C30.8726 39.9883 31.9379 40.5305 33.1076 41.7087C34.4966 43.0954 35.1546 44.8367 35.0502 46.7656C34.8831 49.6537 33.0032 52.0518 30.1833 52.9277C29.4731 53.1571 27.9065 53.2301 27.1232 53.0841C25.9743 52.8547 25.1597 52.4793 23.802 51.5409L23.5409 51.3637L23.802 51.6556C24.721 52.6983 26.9665 54.0225 28.3973 54.3666C31.0919 55.0026 34.0267 54.3457 36.0528 52.6357L36.4392 52.3125L36.8361 52.6357C37.4836 53.1883 38.5385 53.7827 39.4576 54.1163C42.6012 55.2632 46.1835 54.4187 48.8467 51.885C49.0869 51.6556 49.2854 51.4263 49.2854 51.3845C49.2854 51.3324 49.1809 51.395 49.0556 51.5201C48.6065 51.9476 47.6874 52.4689 46.8415 52.7921C46.0582 53.0945 45.8911 53.1154 44.6378 53.1154C43.6561 53.1258 43.1338 53.0737 42.7474 52.9485C39.8753 52.031 37.9954 49.6642 37.8283 46.7656C37.7239 44.8367 38.3818 43.0954 39.7709 41.7087C40.9406 40.5305 42.0059 39.9883 43.6874 39.7172C45.254 39.467 47.207 39.9674 48.5543 40.958C50.6744 42.5219 51.6144 44.8784 51.2489 47.6518L51.1653 48.2253L51.3115 47.8082C51.7919 46.4319 51.8859 44.2945 51.5517 42.866C51.0922 40.9371 49.9747 39.1333 48.5543 38.0177C47.8963 37.4963 46.643 36.7978 46.0164 36.5996L45.63 36.4745L45.7031 35.9428C45.8702 34.8793 45.7866 33.1693 45.536 32.2518C44.7631 29.447 42.5385 27.1115 39.7604 26.1731C38.716 25.8186 37.8492 25.6413 38.716 25.9645C39.656 26.3086 40.4289 26.8091 41.2017 27.5702C42.4445 28.811 43.0712 30.2082 43.1861 31.9598C43.2696 33.1797 43.0607 34.1807 42.4863 35.3485C41.891 36.5475 40.6273 37.83 39.4576 38.4034C36.8674 39.6755 33.6925 39.1646 31.7185 37.1523C30.2459 35.6613 29.5671 33.9304 29.6924 31.9598C29.8595 29.2593 31.6454 26.8612 34.1624 25.9645C34.8831 25.7143 34.6011 25.7143 33.6925 25.975Z" fill="black"/>
<path d="M34.5071 33.5655C33.212 33.8992 31.4261 34.775 31.4261 35.0878C31.4261 35.2233 32.3556 36.3911 32.5749 36.5162C32.6898 36.5892 32.8987 36.5162 33.3269 36.2556C34.3191 35.6613 34.9562 35.5049 36.4392 35.5049C37.9014 35.5049 38.6847 35.703 39.6351 36.2973C40.0006 36.5371 40.1782 36.5996 40.3035 36.5267C40.5228 36.3911 41.4524 35.2338 41.4524 35.0878C41.4524 34.7646 39.5202 33.8262 38.2356 33.5342C37.2434 33.3153 35.4679 33.3257 34.5071 33.5655Z" fill="black"/>
<path d="M28.1258 40.8224C28.0005 41.1352 28.178 43.0954 28.3973 43.8774C28.9404 45.8167 30.2459 47.5893 31.9274 48.6736C32.8256 49.2471 33.1911 49.3931 33.3165 49.2054C33.4522 48.9969 33.7865 48.0689 33.87 47.704C33.9327 47.412 33.9013 47.3703 33.3791 47.0992C31.5828 46.1608 30.3295 44.1485 30.2042 41.9589L30.1415 40.9892L29.6611 40.885C28.6062 40.6452 28.1989 40.6347 28.1258 40.8224Z" fill="black"/>
<path d="M44.0111 40.7286C43.8963 40.7494 43.5621 40.8224 43.2696 40.8745L42.737 40.9892L42.6743 41.9589C42.549 44.1485 41.3061 46.1608 39.4993 47.0992C38.9771 47.3703 38.9458 47.412 39.0085 47.704C39.092 48.0689 39.4262 48.9969 39.562 49.2054C39.6873 49.3931 40.0529 49.2471 40.951 48.6736C42.643 47.5788 43.938 45.8272 44.4811 43.8774C44.7109 43.0537 44.8676 41.3855 44.7527 40.9371C44.69 40.666 44.5438 40.6243 44.0111 40.7286Z" fill="black"/>
<path d="M104.768 16C107.435 16 109.41 16.6705 110.695 18.0114C112.012 19.3524 112.671 21.3181 112.671 23.9086V28.0686C112.671 30.659 112.012 32.6248 110.695 33.9657C109.41 35.3067 107.435 35.9771 104.768 35.9771H102.263V48H96.9624V16H104.768ZM102.263 20.5714V31.4057H104.768C105.604 31.4057 106.246 31.1924 106.696 30.7657C107.146 30.339 107.37 29.5467 107.37 28.3886V23.5886C107.37 22.4305 107.146 21.6381 106.696 21.2114C106.246 20.7848 105.604 20.5714 104.768 20.5714H102.263Z" fill="white"/>
<path d="M130.353 48H125.004L124.089 42.1943H117.584L116.668 48H111.801L117.198 16H124.956L130.353 48ZM118.258 37.8514H123.366L120.812 21.6686L118.258 37.8514Z" fill="white"/>
<path d="M135.616 24.8229V48H130.846V16H137.495L142.94 35.1543V16H147.662V48H142.217L135.616 24.8229Z" fill="white"/>
<path d="M149.53 16H157.914C160.58 16 162.556 16.6705 163.841 18.0114C165.158 19.3524 165.817 21.3181 165.817 23.9086V40.0914C165.817 42.6819 165.158 44.6476 163.841 45.9886C162.556 47.3295 160.58 48 157.914 48H149.53V16ZM154.83 20.5714V43.4286H157.818C158.653 43.4286 159.312 43.2 159.793 42.7429C160.275 42.2857 160.516 41.4781 160.516 40.32V23.68C160.516 22.5219 160.275 21.7143 159.793 21.2571C159.312 20.8 158.653 20.5714 157.818 20.5714H154.83Z" fill="white"/>
<path d="M172.572 29.4857H179.848V34.0571H172.572V43.4286H181.728V48H167.272V16H181.728V20.5714H172.572V29.4857Z" fill="white"/>
<path d="M194.312 38.72L197.926 16H205.298V48H200.287V25.0514L196.625 48H191.614L187.662 25.3714V48H183.037V16H190.409L194.312 38.72Z" fill="white"/>
<path d="M207.226 16H212.527V48H207.226V16Z" fill="white"/>
<path d="M231.629 48H226.28L225.365 42.1943H218.86L217.944 48H213.078L218.474 16H226.232L231.629 48ZM219.534 37.8514H224.642L222.088 21.6686L219.534 37.8514Z" fill="white"/>
</svg>
