<svg width="39" height="32" viewBox="0 0 39 32" fill="none" xmlns="http://www.w3.org/2000/svg">
<path d="M34.8388 8.04549C34.8623 8.38588 34.8623 8.72627 34.8623 9.0698C34.8623 19.5373 26.8937 31.6094 12.3227 31.6094V31.6031C8.01836 31.6094 3.80346 30.3765 0.179932 28.0518C0.805814 28.1271 1.43483 28.1647 2.06542 28.1663C5.63248 28.1694 9.09758 26.9725 11.9039 24.7686C8.51405 24.7043 5.5415 22.4941 4.50307 19.2675C5.69052 19.4965 6.91405 19.4494 8.07954 19.131C4.38385 18.3843 1.72503 15.1373 1.72503 11.3663V11.2659C2.82621 11.8792 4.05915 12.2196 5.32032 12.2573C1.83954 9.93098 0.766598 5.30039 2.86856 1.68C6.89052 6.62902 12.8246 9.63765 19.1948 9.95608C18.5564 7.20471 19.4286 4.32157 21.4866 2.38745C24.6772 -0.611765 29.6952 -0.458039 32.6944 2.73098C34.4686 2.38118 36.169 1.7302 37.725 0.807843C37.1337 2.64157 35.896 4.19922 34.2427 5.18902C35.8129 5.00392 37.347 4.58353 38.7917 3.94196C37.7282 5.53569 36.3886 6.92392 34.8388 8.04549Z" fill="#1D9BF0"/>
</svg>
