<svg width="151" height="184" viewBox="0 0 151 184" fill="none" xmlns="http://www.w3.org/2000/svg">
<path fill-rule="evenodd" clip-rule="evenodd" d="M-31 4C-29.8954 4 -29 3.10457 -29 2C-29 0.895431 -29.8954 0 -31 0C-32.1046 0 -33 0.895431 -33 2C-33 3.10457 -32.1046 4 -31 4ZM-31 84C-29.8954 84 -29 83.1046 -29 82C-29 80.8954 -29.8954 80 -31 80C-32.1046 80 -33 80.8954 -33 82C-33 83.1046 -32.1046 84 -31 84ZM-29 42C-29 43.1046 -29.8954 44 -31 44C-32.1046 44 -33 43.1046 -33 42C-33 40.8954 -32.1046 40 -31 40C-29.8954 40 -29 40.8954 -29 42ZM-31 124C-29.8954 124 -29 123.105 -29 122C-29 120.895 -29.8954 120 -31 120C-32.1046 120 -33 120.895 -33 122C-33 123.105 -32.1046 124 -31 124ZM-29 182C-29 183.105 -29.8954 184 -31 184C-32.1046 184 -33 183.105 -33 182C-33 180.895 -32.1046 180 -31 180C-29.8954 180 -29 180.895 -29 182ZM-31 24C-29.8954 24 -29 23.1046 -29 22C-29 20.8954 -29.8954 20 -31 20C-32.1046 20 -33 20.8954 -33 22C-33 23.1046 -32.1046 24 -31 24ZM-29 102C-29 103.105 -29.8954 104 -31 104C-32.1046 104 -33 103.105 -33 102C-33 100.895 -32.1046 100 -31 100C-29.8954 100 -29 100.895 -29 102ZM-31 164C-29.8954 164 -29 163.105 -29 162C-29 160.895 -29.8954 160 -31 160C-32.1046 160 -33 160.895 -33 162C-33 163.105 -32.1046 164 -31 164ZM-29 62C-29 63.1046 -29.8954 64 -31 64C-32.1046 64 -33 63.1046 -33 62C-33 60.8954 -32.1046 60 -31 60C-29.8954 60 -29 60.8954 -29 62ZM-31 144C-29.8954 144 -29 143.105 -29 142C-29 140.895 -29.8954 140 -31 140C-32.1046 140 -33 140.895 -33 142C-33 143.105 -32.1046 144 -31 144ZM51 2C51 3.10457 50.1046 4 49 4C47.8954 4 47 3.10457 47 2C47 0.895431 47.8954 0 49 0C50.1046 0 51 0.895431 51 2ZM49 84C50.1046 84 51 83.1046 51 82C51 80.8954 50.1046 80 49 80C47.8954 80 47 80.8954 47 82C47 83.1046 47.8954 84 49 84ZM51 42C51 43.1046 50.1046 44 49 44C47.8954 44 47 43.1046 47 42C47 40.8954 47.8954 40 49 40C50.1046 40 51 40.8954 51 42ZM49 124C50.1046 124 51 123.105 51 122C51 120.895 50.1046 120 49 120C47.8954 120 47 120.895 47 122C47 123.105 47.8954 124 49 124ZM51 182C51 183.105 50.1046 184 49 184C47.8954 184 47 183.105 47 182C47 180.895 47.8954 180 49 180C50.1046 180 51 180.895 51 182ZM49 24C50.1046 24 51 23.1046 51 22C51 20.8954 50.1046 20 49 20C47.8954 20 47 20.8954 47 22C47 23.1046 47.8954 24 49 24ZM51 102C51 103.105 50.1046 104 49 104C47.8954 104 47 103.105 47 102C47 100.895 47.8954 100 49 100C50.1046 100 51 100.895 51 102ZM49 164C50.1046 164 51 163.105 51 162C51 160.895 50.1046 160 49 160C47.8954 160 47 160.895 47 162C47 163.105 47.8954 164 49 164ZM51 62C51 63.1046 50.1046 64 49 64C47.8954 64 47 63.1046 47 62C47 60.8954 47.8954 60 49 60C50.1046 60 51 60.8954 51 62ZM49 144C50.1046 144 51 143.105 51 142C51 140.895 50.1046 140 49 140C47.8954 140 47 140.895 47 142C47 143.105 47.8954 144 49 144ZM11 2C11 3.10457 10.1046 4 9 4C7.89543 4 7 3.10457 7 2C7 0.895431 7.89543 0 9 0C10.1046 0 11 0.895431 11 2ZM9 84C10.1046 84 11 83.1046 11 82C11 80.8954 10.1046 80 9 80C7.89543 80 7 80.8954 7 82C7 83.1046 7.89543 84 9 84ZM11 42C11 43.1046 10.1046 44 9 44C7.89543 44 7 43.1046 7 42C7 40.8954 7.89543 40 9 40C10.1046 40 11 40.8954 11 42ZM9 124C10.1046 124 11 123.105 11 122C11 120.895 10.1046 120 9 120C7.89543 120 7 120.895 7 122C7 123.105 7.89543 124 9 124ZM11 182C11 183.105 10.1046 184 9 184C7.89543 184 7 183.105 7 182C7 180.895 7.89543 180 9 180C10.1046 180 11 180.895 11 182ZM9 24C10.1046 24 11 23.1046 11 22C11 20.8954 10.1046 20 9 20C7.89543 20 7 20.8954 7 22C7 23.1046 7.89543 24 9 24ZM11 102C11 103.105 10.1046 104 9 104C7.89543 104 7 103.105 7 102C7 100.895 7.89543 100 9 100C10.1046 100 11 100.895 11 102ZM9 164C10.1046 164 11 163.105 11 162C11 160.895 10.1046 160 9 160C7.89543 160 7 160.895 7 162C7 163.105 7.89543 164 9 164ZM11 62C11 63.1046 10.1046 64 9 64C7.89543 64 7 63.1046 7 62C7 60.8954 7.89543 60 9 60C10.1046 60 11 60.8954 11 62ZM9 144C10.1046 144 11 143.105 11 142C11 140.895 10.1046 140 9 140C7.89543 140 7 140.895 7 142C7 143.105 7.89543 144 9 144ZM91 2C91 3.10457 90.1046 4 89 4C87.8954 4 87 3.10457 87 2C87 0.895431 87.8954 0 89 0C90.1046 0 91 0.895431 91 2ZM89 84C90.1046 84 91 83.1046 91 82C91 80.8954 90.1046 80 89 80C87.8954 80 87 80.8954 87 82C87 83.1046 87.8954 84 89 84ZM91 42C91 43.1046 90.1046 44 89 44C87.8954 44 87 43.1046 87 42C87 40.8954 87.8954 40 89 40C90.1046 40 91 40.8954 91 42ZM89 124C90.1046 124 91 123.105 91 122C91 120.895 90.1046 120 89 120C87.8954 120 87 120.895 87 122C87 123.105 87.8954 124 89 124ZM91 182C91 183.105 90.1046 184 89 184C87.8954 184 87 183.105 87 182C87 180.895 87.8954 180 89 180C90.1046 180 91 180.895 91 182ZM89 24C90.1046 24 91 23.1046 91 22C91 20.8954 90.1046 20 89 20C87.8954 20 87 20.8954 87 22C87 23.1046 87.8954 24 89 24ZM91 102C91 103.105 90.1046 104 89 104C87.8954 104 87 103.105 87 102C87 100.895 87.8954 100 89 100C90.1046 100 91 100.895 91 102ZM89 164C90.1046 164 91 163.105 91 162C91 160.895 90.1046 160 89 160C87.8954 160 87 160.895 87 162C87 163.105 87.8954 164 89 164ZM91 62C91 63.1046 90.1046 64 89 64C87.8954 64 87 63.1046 87 62C87 60.8954 87.8954 60 89 60C90.1046 60 91 60.8954 91 62ZM89 144C90.1046 144 91 143.105 91 142C91 140.895 90.1046 140 89 140C87.8954 140 87 140.895 87 142C87 143.105 87.8954 144 89 144ZM131 2C131 3.10457 130.105 4 129 4C127.895 4 127 3.10457 127 2C127 0.895431 127.895 0 129 0C130.105 0 131 0.895431 131 2ZM129 84C130.105 84 131 83.1046 131 82C131 80.8954 130.105 80 129 80C127.895 80 127 80.8954 127 82C127 83.1046 127.895 84 129 84ZM131 42C131 43.1046 130.105 44 129 44C127.895 44 127 43.1046 127 42C127 40.8954 127.895 40 129 40C130.105 40 131 40.8954 131 42ZM129 124C130.105 124 131 123.105 131 122C131 120.895 130.105 120 129 120C127.895 120 127 120.895 127 122C127 123.105 127.895 124 129 124ZM131 182C131 183.105 130.105 184 129 184C127.895 184 127 183.105 127 182C127 180.895 127.895 180 129 180C130.105 180 131 180.895 131 182ZM129 24C130.105 24 131 23.1046 131 22C131 20.8954 130.105 20 129 20C127.895 20 127 20.8954 127 22C127 23.1046 127.895 24 129 24ZM131 102C131 103.105 130.105 104 129 104C127.895 104 127 103.105 127 102C127 100.895 127.895 100 129 100C130.105 100 131 100.895 131 102ZM129 164C130.105 164 131 163.105 131 162C131 160.895 130.105 160 129 160C127.895 160 127 160.895 127 162C127 163.105 127.895 164 129 164ZM131 62C131 63.1046 130.105 64 129 64C127.895 64 127 63.1046 127 62C127 60.8954 127.895 60 129 60C130.105 60 131 60.8954 131 62ZM129 144C130.105 144 131 143.105 131 142C131 140.895 130.105 140 129 140C127.895 140 127 140.895 127 142C127 143.105 127.895 144 129 144ZM-9 2C-9 3.10457 -9.89543 4 -11 4C-12.1046 4 -13 3.10457 -13 2C-13 0.895431 -12.1046 0 -11 0C-9.89543 0 -9 0.895431 -9 2ZM-11 84C-9.89543 84 -9 83.1046 -9 82C-9 80.8954 -9.89543 80 -11 80C-12.1046 80 -13 80.8954 -13 82C-13 83.1046 -12.1046 84 -11 84ZM-9 42C-9 43.1046 -9.89543 44 -11 44C-12.1046 44 -13 43.1046 -13 42C-13 40.8954 -12.1046 40 -11 40C-9.89543 40 -9 40.8954 -9 42ZM-11 124C-9.89543 124 -9 123.105 -9 122C-9 120.895 -9.89543 120 -11 120C-12.1046 120 -13 120.895 -13 122C-13 123.105 -12.1046 124 -11 124ZM-9 182C-9 183.105 -9.89543 184 -11 184C-12.1046 184 -13 183.105 -13 182C-13 180.895 -12.1046 180 -11 180C-9.89543 180 -9 180.895 -9 182ZM-11 24C-9.89543 24 -9 23.1046 -9 22C-9 20.8954 -9.89543 20 -11 20C-12.1046 20 -13 20.8954 -13 22C-13 23.1046 -12.1046 24 -11 24ZM-9 102C-9 103.105 -9.89543 104 -11 104C-12.1046 104 -13 103.105 -13 102C-13 100.895 -12.1046 100 -11 100C-9.89543 100 -9 100.895 -9 102ZM-11 164C-9.89543 164 -9 163.105 -9 162C-9 160.895 -9.89543 160 -11 160C-12.1046 160 -13 160.895 -13 162C-13 163.105 -12.1046 164 -11 164ZM-9 62C-9 63.1046 -9.89543 64 -11 64C-12.1046 64 -13 63.1046 -13 62C-13 60.8954 -12.1046 60 -11 60C-9.89543 60 -9 60.8954 -9 62ZM-11 144C-9.89543 144 -9 143.105 -9 142C-9 140.895 -9.89543 140 -11 140C-12.1046 140 -13 140.895 -13 142C-13 143.105 -12.1046 144 -11 144ZM71 2C71 3.10457 70.1046 4 69 4C67.8954 4 67 3.10457 67 2C67 0.895431 67.8954 0 69 0C70.1046 0 71 0.895431 71 2ZM69 84C70.1046 84 71 83.1046 71 82C71 80.8954 70.1046 80 69 80C67.8954 80 67 80.8954 67 82C67 83.1046 67.8954 84 69 84ZM71 42C71 43.1046 70.1046 44 69 44C67.8954 44 67 43.1046 67 42C67 40.8954 67.8954 40 69 40C70.1046 40 71 40.8954 71 42ZM69 124C70.1046 124 71 123.105 71 122C71 120.895 70.1046 120 69 120C67.8954 120 67 120.895 67 122C67 123.105 67.8954 124 69 124ZM71 182C71 183.105 70.1046 184 69 184C67.8954 184 67 183.105 67 182C67 180.895 67.8954 180 69 180C70.1046 180 71 180.895 71 182ZM69 24C70.1046 24 71 23.1046 71 22C71 20.8954 70.1046 20 69 20C67.8954 20 67 20.8954 67 22C67 23.1046 67.8954 24 69 24ZM71 102C71 103.105 70.1046 104 69 104C67.8954 104 67 103.105 67 102C67 100.895 67.8954 100 69 100C70.1046 100 71 100.895 71 102ZM69 164C70.1046 164 71 163.105 71 162C71 160.895 70.1046 160 69 160C67.8954 160 67 160.895 67 162C67 163.105 67.8954 164 69 164ZM71 62C71 63.1046 70.1046 64 69 64C67.8954 64 67 63.1046 67 62C67 60.8954 67.8954 60 69 60C70.1046 60 71 60.8954 71 62ZM69 144C70.1046 144 71 143.105 71 142C71 140.895 70.1046 140 69 140C67.8954 140 67 140.895 67 142C67 143.105 67.8954 144 69 144ZM31 2C31 3.10457 30.1046 4 29 4C27.8954 4 27 3.10457 27 2C27 0.895431 27.8954 0 29 0C30.1046 0 31 0.895431 31 2ZM29 84C30.1046 84 31 83.1046 31 82C31 80.8954 30.1046 80 29 80C27.8954 80 27 80.8954 27 82C27 83.1046 27.8954 84 29 84ZM31 42C31 43.1046 30.1046 44 29 44C27.8954 44 27 43.1046 27 42C27 40.8954 27.8954 40 29 40C30.1046 40 31 40.8954 31 42ZM29 124C30.1046 124 31 123.105 31 122C31 120.895 30.1046 120 29 120C27.8954 120 27 120.895 27 122C27 123.105 27.8954 124 29 124ZM31 182C31 183.105 30.1046 184 29 184C27.8954 184 27 183.105 27 182C27 180.895 27.8954 180 29 180C30.1046 180 31 180.895 31 182ZM29 24C30.1046 24 31 23.1046 31 22C31 20.8954 30.1046 20 29 20C27.8954 20 27 20.8954 27 22C27 23.1046 27.8954 24 29 24ZM31 102C31 103.105 30.1046 104 29 104C27.8954 104 27 103.105 27 102C27 100.895 27.8954 100 29 100C30.1046 100 31 100.895 31 102ZM29 164C30.1046 164 31 163.105 31 162C31 160.895 30.1046 160 29 160C27.8954 160 27 160.895 27 162C27 163.105 27.8954 164 29 164ZM31 62C31 63.1046 30.1046 64 29 64C27.8954 64 27 63.1046 27 62C27 60.8954 27.8954 60 29 60C30.1046 60 31 60.8954 31 62ZM29 144C30.1046 144 31 143.105 31 142C31 140.895 30.1046 140 29 140C27.8954 140 27 140.895 27 142C27 143.105 27.8954 144 29 144ZM111 2C111 3.10457 110.105 4 109 4C107.895 4 107 3.10457 107 2C107 0.895431 107.895 0 109 0C110.105 0 111 0.895431 111 2ZM109 84C110.105 84 111 83.1046 111 82C111 80.8954 110.105 80 109 80C107.895 80 107 80.8954 107 82C107 83.1046 107.895 84 109 84ZM111 42C111 43.1046 110.105 44 109 44C107.895 44 107 43.1046 107 42C107 40.8954 107.895 40 109 40C110.105 40 111 40.8954 111 42ZM109 124C110.105 124 111 123.105 111 122C111 120.895 110.105 120 109 120C107.895 120 107 120.895 107 122C107 123.105 107.895 124 109 124ZM111 182C111 183.105 110.105 184 109 184C107.895 184 107 183.105 107 182C107 180.895 107.895 180 109 180C110.105 180 111 180.895 111 182ZM109 24C110.105 24 111 23.1046 111 22C111 20.8954 110.105 20 109 20C107.895 20 107 20.8954 107 22C107 23.1046 107.895 24 109 24ZM111 102C111 103.105 110.105 104 109 104C107.895 104 107 103.105 107 102C107 100.895 107.895 100 109 100C110.105 100 111 100.895 111 102ZM109 164C110.105 164 111 163.105 111 162C111 160.895 110.105 160 109 160C107.895 160 107 160.895 107 162C107 163.105 107.895 164 109 164ZM111 62C111 63.1046 110.105 64 109 64C107.895 64 107 63.1046 107 62C107 60.8954 107.895 60 109 60C110.105 60 111 60.8954 111 62ZM109 144C110.105 144 111 143.105 111 142C111 140.895 110.105 140 109 140C107.895 140 107 140.895 107 142C107 143.105 107.895 144 109 144ZM151 2C151 3.10457 150.105 4 149 4C147.895 4 147 3.10457 147 2C147 0.895431 147.895 0 149 0C150.105 0 151 0.895431 151 2ZM149 84C150.105 84 151 83.1046 151 82C151 80.8954 150.105 80 149 80C147.895 80 147 80.8954 147 82C147 83.1046 147.895 84 149 84ZM151 42C151 43.1046 150.105 44 149 44C147.895 44 147 43.1046 147 42C147 40.8954 147.895 40 149 40C150.105 40 151 40.8954 151 42ZM149 124C150.105 124 151 123.105 151 122C151 120.895 150.105 120 149 120C147.895 120 147 120.895 147 122C147 123.105 147.895 124 149 124ZM151 182C151 183.105 150.105 184 149 184C147.895 184 147 183.105 147 182C147 180.895 147.895 180 149 180C150.105 180 151 180.895 151 182ZM149 24C150.105 24 151 23.1046 151 22C151 20.8954 150.105 20 149 20C147.895 20 147 20.8954 147 22C147 23.1046 147.895 24 149 24ZM151 102C151 103.105 150.105 104 149 104C147.895 104 147 103.105 147 102C147 100.895 147.895 100 149 100C150.105 100 151 100.895 151 102ZM149 164C150.105 164 151 163.105 151 162C151 160.895 150.105 160 149 160C147.895 160 147 160.895 147 162C147 163.105 147.895 164 149 164ZM151 62C151 63.1046 150.105 64 149 64C147.895 64 147 63.1046 147 62C147 60.8954 147.895 60 149 60C150.105 60 151 60.8954 151 62ZM149 144C150.105 144 151 143.105 151 142C151 140.895 150.105 140 149 140C147.895 140 147 140.895 147 142C147 143.105 147.895 144 149 144Z" fill="white"/>
</svg>
