<svg width="30" height="30" viewBox="0 0 30 30" fill="none" xmlns="http://www.w3.org/2000/svg">
<path d="M12.0891 0.0868815C11.3559 0.268522 10.5707 0.889616 10.2128 1.5693C9.41605 3.08688 9.98183 4.83297 11.5348 5.68258L12.0256 5.94626L12.268 6.91305C12.6144 8.3193 12.6086 8.39547 12.0717 8.60641C11.633 8.78805 10.9575 9.1279 10.5303 9.39157C10.0915 9.6611 9.86059 9.66696 9.62389 9.43258C9.41028 9.21579 9.4045 9.01071 9.60079 8.43063C9.68162 8.18454 9.76822 7.74508 9.80286 7.40524C9.92987 6.03415 9.4911 4.79782 8.52697 3.80758C7.24532 2.48337 5.1785 2.13766 3.48117 2.95798C2.37848 3.49118 1.45477 4.6279 1.13724 5.83493C0.958268 6.5029 0.958268 7.54001 1.13147 8.15524C1.60487 9.8486 2.87498 11.0498 4.54344 11.3896C5.13231 11.5127 5.98675 11.4834 6.61603 11.3252C7.1183 11.1963 7.228 11.2373 7.53398 11.6416C7.78223 11.9756 7.77645 12.1631 7.48779 12.708C7.02016 13.5927 6.72573 14.4599 6.53521 15.4912C6.48325 15.7783 6.41974 16.0654 6.3851 16.124C6.29851 16.2939 6.00984 16.3818 5.4152 16.4287L4.86675 16.4697L4.43375 16.1416C3.8622 15.708 3.49849 15.5674 2.85766 15.5322C2.22261 15.497 1.73765 15.6201 1.27002 15.9306C0.594555 16.3759 0.150016 17.0615 0.0287784 17.8584C-0.173285 19.2002 0.71002 20.5478 2.009 20.8877C3.02508 21.1513 4.17396 20.7529 4.81479 19.9209C4.95912 19.7334 5.14386 19.5459 5.23046 19.5049C5.31706 19.4697 5.63458 19.4228 5.93479 19.4052C6.62758 19.3642 6.71418 19.4228 6.94511 20.0732C7.228 20.8701 7.71295 21.7724 8.22099 22.4463C8.47501 22.7744 8.5212 22.915 8.42305 23.0732C8.38842 23.1318 8.30182 23.1435 8.12285 23.1142C7.54552 23.0322 6.81232 23.0146 6.48902 23.0732C5.61149 23.2373 4.69932 23.9463 4.2952 24.7841C3.38302 26.6533 4.3587 28.8447 6.33892 29.3779C6.74305 29.4892 7.54552 29.4892 7.94965 29.3779C8.97151 29.1025 9.79708 28.3291 10.155 27.2978C10.2705 26.9814 10.2936 26.7939 10.2994 26.1845L10.3051 25.4521L10.5476 25.1767C10.6804 25.0185 10.842 24.8955 10.8998 24.8955C11.0614 24.8955 11.8293 25.2646 12.0371 25.4463C12.2507 25.6279 12.3431 25.9736 12.3431 26.6064C12.3431 28.3466 13.7748 29.8525 15.5414 29.9756C17.233 30.0869 18.786 28.8798 19.1324 27.1806C19.2017 26.8466 19.2132 26.5771 19.1786 26.0556C19.1439 25.4287 19.1497 25.3584 19.2594 25.1767C19.3229 25.0713 19.525 24.8896 19.7097 24.7783C19.8887 24.667 20.2582 24.4091 20.5295 24.2041C21.3378 23.6006 21.4936 23.5595 21.7823 23.9111C21.9555 24.1162 21.9555 24.2099 21.8112 24.7724C21.3609 26.4951 22.1633 28.2998 23.7221 29.0673C24.3514 29.3838 24.692 29.4658 25.3617 29.4658C26.0199 29.4658 26.3663 29.3838 26.9782 29.0849C28.2714 28.4463 29.0393 27.2216 29.0335 25.7802C29.0335 25.0771 28.9527 24.7138 28.6467 24.081C28.1848 23.1201 27.4112 22.4756 26.3201 22.1357C25.939 22.0244 25.812 22.0127 25.1192 22.042L24.3514 22.0713L24.0108 21.8134C23.4046 21.3506 23.3122 21.2451 23.3122 20.9873C23.3122 20.8584 23.3757 20.5888 23.4565 20.3896C23.5374 20.1845 23.6702 19.8154 23.751 19.5634C24.005 18.7431 24.3341 18.6025 25.3328 18.8896C25.506 18.9365 25.8582 18.9775 26.118 18.9775C27.9019 18.9775 29.3568 17.5947 29.5242 15.7373C29.6339 14.4716 28.9642 13.1591 27.8731 12.5088C27.2265 12.122 26.8974 12.0341 26.0834 12.04C25.252 12.0459 24.9518 12.1279 24.2648 12.5498C23.6124 12.9482 23.2198 12.8838 22.833 12.3154C22.7291 12.1631 22.4462 11.7646 22.2038 11.4306C21.4821 10.4463 21.4706 10.2295 22.1056 8.96383C22.631 7.92087 22.8561 7.65719 23.3411 7.52829C24.3398 7.25876 24.5419 7.18844 24.8537 7.00094C25.3444 6.70797 25.6966 6.37399 26.0199 5.87594C27.3246 3.90133 26.2623 1.18844 23.953 0.602506C23.4335 0.4736 22.5501 0.514616 22.0421 0.690397C20.7893 1.13571 19.8887 2.25485 19.7386 3.56735C19.6809 4.07126 19.7617 4.7861 19.9406 5.24313C20.0388 5.5068 20.0908 5.77047 20.0965 5.99899C20.0965 6.3154 20.0619 6.42087 19.7444 7.0654C19.5481 7.45797 19.3056 7.87985 19.2017 7.99704C18.8264 8.43063 18.3761 8.51852 17.5448 8.3193C17.2907 8.25485 16.7942 8.17282 16.4363 8.1318C15.9398 8.07321 15.7551 8.02633 15.6511 7.93844C15.5357 7.83883 15.4606 7.5986 15.2239 6.59079C15.068 5.91696 14.941 5.30758 14.941 5.23727C14.941 5.17282 15.0565 4.93258 15.2008 4.71579C15.5588 4.15915 15.6973 3.74899 15.732 3.15719C15.8474 1.14743 14.0231 -0.387728 12.0891 0.0868815ZM19.3633 10.54C19.6982 10.6748 19.7848 11.0791 19.5307 11.331C19.2767 11.5947 18.8611 11.4834 18.734 11.1142C18.6763 10.956 18.8091 10.6631 18.9765 10.5693C19.1613 10.4697 19.167 10.4697 19.3633 10.54ZM12.5509 12.6611C12.9781 12.8193 13.3418 13.165 13.567 13.6338C13.7344 13.9795 13.7575 14.0791 13.7575 14.4951C13.7575 14.9111 13.7344 15.0166 13.567 15.3623C12.9435 16.6396 11.2924 16.8623 10.3513 15.7959C9.68739 15.0517 9.69317 13.9326 10.3629 13.1767C10.9286 12.5381 11.7196 12.3506 12.5509 12.6611ZM16.927 12.5556C17.2561 12.6963 17.3196 13.1709 17.0309 13.3877C16.8693 13.5166 16.5691 13.4873 16.4132 13.3232C16.1245 13.0361 16.2804 12.6025 16.7192 12.4795C16.725 12.4736 16.8231 12.5088 16.927 12.5556ZM21.0087 14.1845C21.407 14.372 21.7881 14.7588 21.9786 15.1689C22.1056 15.4384 22.1287 15.5732 22.1287 15.9892C22.1287 16.5927 21.9728 16.9853 21.5745 17.3896C21.1761 17.7939 20.7893 17.9521 20.1947 17.9521C19.6058 17.9521 19.1959 17.7881 18.8091 17.3955C18.4223 17.0029 18.2606 16.5869 18.2606 15.9892C18.2606 15.5732 18.2837 15.4384 18.4107 15.1689C18.5724 14.8232 18.9534 14.3955 19.2363 14.249C19.7905 13.956 20.466 13.9326 21.0087 14.1845ZM24.8306 15.0634C25.1423 15.2275 25.1943 15.5849 24.9518 15.8369C24.7613 16.0302 24.5246 16.0361 24.3168 15.8486C23.8953 15.4853 24.3456 14.7998 24.8306 15.0634ZM11.5983 18.5849C11.9736 18.8779 11.8004 19.4697 11.3328 19.4697C10.894 19.4697 10.6804 18.9599 10.9864 18.6552C11.1422 18.497 11.4425 18.4619 11.5983 18.5849ZM16.4709 18.5908C17.4928 18.8662 18.3415 19.7275 18.6128 20.7646C18.7167 21.1396 18.7167 21.8545 18.6128 22.2295C18.2664 23.542 17.0714 24.4853 15.7608 24.4853C14.1616 24.4853 12.8049 23.1142 12.8049 21.497C12.8049 20.1787 13.7402 18.9482 15.0045 18.6025C15.4029 18.4912 16.0957 18.4853 16.4709 18.5908ZM21.3493 20.0322C21.4706 20.0322 21.638 20.3017 21.638 20.4951C21.638 20.917 21.153 21.1338 20.847 20.8408C20.6969 20.7002 20.6681 20.3603 20.7951 20.1963C20.8817 20.0732 21.1184 19.9736 21.2223 20.0088C21.2685 20.0205 21.3262 20.0322 21.3493 20.0322Z" fill="white"/>
</svg>
